<?xml version="1.0" encoding="UTF-8"?>
<svg id="Layer_2" data-name="Layer 2" xmlns="http://www.w3.org/2000/svg" xmlns:xlink="http://www.w3.org/1999/xlink" viewBox="0 0 348.1 350.24">
  <defs>
    <style>
      .cls-1 {
        opacity: .71;
      }

      .cls-2 {
        fill: #b0eaf6;
      }

      .cls-3 {
        fill: #51f6a2;
      }

      .cls-4 {
        fill: #fff;
      }

      .cls-5 {
        mix-blend-mode: soft-light;
      }

      .cls-6, .cls-7, .cls-8 {
        opacity: .2;
      }

      .cls-9 {
        fill: url(#linear-gradient-4);
      }

      .cls-9, .cls-7, .cls-10, .cls-11, .cls-12, .cls-8, .cls-13, .cls-14, .cls-15, .cls-16, .cls-17, .cls-18 {
        isolation: isolate;
      }

      .cls-9, .cls-7, .cls-11, .cls-12, .cls-8, .cls-14, .cls-15, .cls-16 {
        mix-blend-mode: screen;
      }

      .cls-9, .cls-12, .cls-14, .cls-15 {
        opacity: .85;
      }

      .cls-7 {
        fill: url(#radial-gradient-2);
      }

      .cls-11 {
        fill: url(#radial-gradient-4);
      }

      .cls-11, .cls-16, .cls-19 {
        opacity: .5;
      }

      .cls-12 {
        fill: url(#linear-gradient-3);
      }

      .cls-20 {
        fill: #4eedf6;
      }

      .cls-8 {
        fill: url(#radial-gradient);
      }

      .cls-13 {
        fill: url(#radial-gradient-6);
      }

      .cls-14 {
        fill: url(#linear-gradient);
      }

      .cls-15 {
        fill: url(#linear-gradient-2);
      }

      .cls-16 {
        fill: url(#radial-gradient-3);
      }

      .cls-17 {
        fill: url(#radial-gradient-7);
      }

      .cls-21 {
        opacity: .8;
      }

      .cls-18 {
        fill: url(#radial-gradient-5);
      }
    </style>
    <radialGradient id="radial-gradient" cx="-5738.52" cy="-6258.68" fx="-5738.52" fy="-6258.68" r="37.36" gradientTransform="translate(25632.84 -4511.26) scale(4.44 -.77)" gradientUnits="userSpaceOnUse">
      <stop offset=".86" stop-color="#0d1524"/>
      <stop offset=".91" stop-color="#142f4a"/>
      <stop offset=".96" stop-color="#599ba3"/>
    </radialGradient>
    <radialGradient id="radial-gradient-2" cx="-5738.52" cy="-6258.68" fx="-5738.52" fy="-6258.68" r="31.65" gradientTransform="translate(25632.84 -4511.26) scale(4.44 -.77)" gradientUnits="userSpaceOnUse">
      <stop offset=".64" stop-color="#000"/>
      <stop offset=".78" stop-color="#172a43"/>
      <stop offset=".96" stop-color="#346098"/>
    </radialGradient>
    <linearGradient id="linear-gradient" x1="182.37" y1="-2760.52" x2="182.37" y2="-2467.49" gradientTransform="translate(0 -2435.01) scale(1 -1)" gradientUnits="userSpaceOnUse">
      <stop offset=".04" stop-color="#599ba3"/>
      <stop offset=".56" stop-color="#3f6673"/>
      <stop offset="1" stop-color="#142f4a"/>
    </linearGradient>
    <linearGradient id="linear-gradient-2" x1="182.15" x2="182.15" y2="-2435.01" xlink:href="#linear-gradient"/>
    <linearGradient id="linear-gradient-3" x1="1807.42" y1="-6697.03" x2="1807.42" y2="-6430.39" gradientTransform="translate(-4732.11 -4599.31) rotate(-29.95) scale(1 -1)" xlink:href="#linear-gradient"/>
    <linearGradient id="linear-gradient-4" x1="-1006.53" y1="-150.93" x2="-1006.53" y2="119.68" gradientTransform="translate(698.9 446.1) rotate(31.97) scale(.53 -1)" xlink:href="#linear-gradient"/>
    <radialGradient id="radial-gradient-3" cx="2039.83" cy="-947.27" fx="2039.83" fy="-947.27" r="26.87" gradientTransform="translate(-476.47 157.77) scale(.32 -.17)" gradientUnits="userSpaceOnUse">
      <stop offset=".04" stop-color="#79ffe3"/>
      <stop offset="1" stop-color="#000"/>
    </radialGradient>
    <radialGradient id="radial-gradient-4" cx="1358.42" cy="-1157.91" fx="1358.42" fy="-1157.91" r="31.65" gradientTransform="translate(-127.66 -1375.19) scale(.38 -.37)" xlink:href="#radial-gradient-3"/>
    <radialGradient id="radial-gradient-5" cx="608.5" cy="2185.84" fx="608.5" fy="2185.84" r="44.38" gradientTransform="translate(-127.66 -123.24) scale(.38 .21)" gradientUnits="userSpaceOnUse">
      <stop offset="0" stop-color="#79ffe3"/>
      <stop offset="1" stop-color="#142f4a" stop-opacity="0"/>
    </radialGradient>
    <radialGradient id="radial-gradient-6" cx="808.26" cy="592" fx="808.26" fy="592" r="44.38" gradientTransform="translate(-2044.78 -8.95) scale(2.75 .56)" xlink:href="#radial-gradient-5"/>
    <radialGradient id="radial-gradient-7" cx="1024.57" cy="2184.23" fx="1024.57" fy="2184.23" r="44.38" gradientTransform="translate(-127.66 -123.5) scale(.38 .21)" xlink:href="#radial-gradient-5"/>
  </defs>
  <g id="Layer_1-2" data-name="Layer 1">
    <g class="cls-10">
      <g id="Calque_2" data-name="Calque 2">
        <g id="head">
          <g>
            <ellipse class="cls-8" cx="174.53" cy="321.38" rx="165.73" ry="28.86"/>
            <ellipse class="cls-7" cx="174.53" cy="321.38" rx="140.4" ry="24.45"/>
            <g>
              <path class="cls-14" d="M148.15,303.85L31.67,108.11,333.07,32.48l-128.55,270.6s-3.02,22.43-28.68,22.43-27.68-21.66-27.68-21.66h0Z"/>
              <path class="cls-15" d="M167.51,303.85L116.49,0l131.31,32.48-55.82,270.6s-1.31,22.43-12.46,22.43-12.02-21.66-12.02-21.66h0Z"/>
              <path class="cls-12" d="M150.9,299.21L41.7,77.04l25.34-20.12,87.72,232.19s2.49,19.94.69,24.24c-1.8,4.3-4.56-14.14-4.56-14.14h0Z"/>
              <path class="cls-9" d="M196.04,287.96l85.58-243.38,6.65,54.66-90.09,193.37s-2.98,18.74-3.92,16.33c-.94-2.41,1.76-20.98,1.76-20.98h0Z"/>
            </g>
            <g class="cls-21">
              <g class="cls-19">
                <path class="cls-20" d="M150.9,328.01c-14.6-1.45-23.91-4.03-24.91-6.91l12.75-.13c.75,2.14,7.68,4.07,18.55,5.14l-6.38,1.9h0ZM203.35,327.73l-7.04-1.83c10.45-1.19,16.7-3.18,16.7-5.33v-.02h12.77v.02c0,2.89-8.38,5.56-22.42,7.16h0ZM157.19,315.05l-6.42-1.9c7.58-.76,16.25-1.16,25.06-1.16h0c7.82,0,15.31.3,22.26.9l-5.7,1.96c-5.17-.44-10.74-.67-16.56-.67h0c-6.56,0-13.01.3-18.65.86h0Z"/>
              </g>
              <path class="cls-20" d="M175.83,331.99c-36.65,0-66.47-5.12-66.47-11.41s29.82-11.41,66.47-11.41,66.47,5.12,66.47,11.41-29.82,11.41-66.47,11.41ZM175.83,309.25c-36.37,0-65.96,5.08-65.96,11.33s29.59,11.33,65.96,11.33,65.96-5.08,65.96-11.33-29.59-11.33-65.96-11.33h0Z"/>
              <path class="cls-20" d="M175.83,325.6c-16.15,0-29.28-2.26-29.28-5.03s13.14-5.03,29.28-5.03,29.28,2.26,29.28,5.03-13.14,5.03-29.28,5.03ZM175.83,315.63c-15.87,0-28.78,2.22-28.78,4.94s12.91,4.94,28.78,4.94,28.78-2.22,28.78-4.94-12.91-4.94-28.78-4.94Z"/>
              <g class="cls-19">
                <path class="cls-20" d="M175.83,338.45c-27.8,0-53.94-1.86-73.59-5.23-19.66-3.38-30.48-7.86-30.48-12.64s10.83-9.26,30.48-12.64c19.66-3.38,45.79-5.23,73.59-5.23s53.94,1.86,73.6,5.23c19.66,3.38,30.48,7.86,30.48,12.64s-10.83,9.26-30.48,12.64c-19.66,3.38-45.8,5.23-73.6,5.23ZM175.83,302.76c-57.21,0-103.74,7.99-103.74,17.82s46.54,17.82,103.74,17.82,103.74-7.99,103.74-17.82-46.54-17.82-103.74-17.82Z"/>
              </g>
              <g class="cls-19">
                <path class="cls-20" d="M175.83,339.68c-61.34,0-111.24-8.57-111.24-19.1s49.9-19.1,111.24-19.1,111.24,8.57,111.24,19.1-49.9,19.1-111.24,19.1h0ZM175.83,302.05c-59.48,0-107.88,8.31-107.88,18.53s48.39,18.53,107.88,18.53,107.88-8.31,107.88-18.53-48.39-18.53-107.88-18.53h0Z"/>
              </g>
              <g class="cls-5">
                <path class="cls-20" d="M175.83,331.15c-2.62,0-5.25-.03-7.84-.08l.51-.69c2.41.05,4.88.08,7.33.08,13.2,0,25.61-.75,35.9-2.16l2.52.54c-11.01,1.51-24.29,2.31-38.42,2.31h0ZM162.17,330.89c-16.13-.63-30.34-2.38-38.98-4.82l3.44-.36c8.08,2.28,21.35,3.92,36.43,4.51l-.89.67h0ZM218.69,328.17l-2.81-.5c11.29-1.88,17.5-4.4,17.5-7.1v-.02h4.03v.02c0,2.89-6.65,5.59-18.73,7.6h0ZM120.36,325.17c-4.06-1.44-6.11-2.99-6.11-4.6,0-1.25,1.26-2.48,3.75-3.64l3.79.24c-2.32,1.09-3.5,2.23-3.5,3.4,0,1.51,1.92,2.95,5.71,4.3l-3.63.3h0ZM233.12,319.6c-1.5-2.64-9.33-5.11-21.48-6.77l2.51-.54c13,1.78,21.38,4.42,22.98,7.24l-4.01.07h0ZM123.93,316.3l-3.63-.3c7.19-2.57,20.33-4.56,36.04-5.46l1.28.66c-14.68.84-26.96,2.7-33.68,5.1h0ZM207.15,312.28c-9.32-1.04-20.15-1.59-31.31-1.59-4.35,0-8.69.08-12.9.25l-.9-.67c4.5-.18,9.14-.27,13.8-.27,11.95,0,23.54.59,33.51,1.7l-2.2.58h0Z"/>
              </g>
              <path class="cls-20" d="M150.91,328.08h-.02c-14.63-1.45-23.97-4.06-24.98-6.97l-.04-.1h.11l12.8-.13.02.06c.74,2.11,7.65,4.02,18.48,5.09l.4.04-6.79,2.02h0ZM126.11,321.17c1.18,2.81,10.41,5.33,24.79,6.75l5.98-1.78c-10.58-1.08-17.35-2.98-18.2-5.1l-12.57.13h0ZM203.34,327.81h-.01s-7.46-1.94-7.46-1.94l.43-.05c10.41-1.18,16.62-3.14,16.62-5.25v-.1h12.93v.1c0,2.93-8.41,5.64-22.49,7.24h-.02ZM196.74,325.93l6.61,1.72c13.89-1.58,22.22-4.2,22.34-7.02h-12.61c-.11,2.14-6.19,4.11-16.34,5.3h0ZM157.18,315.13h-.01s-6.81-2.01-6.81-2.01l.4-.04c7.58-.76,16.26-1.16,25.07-1.16,7.82,0,15.31.3,22.27.9l.38.03-6.07,2.09h-.02c-5.16-.44-10.73-.67-16.55-.67-6.56,0-13.01.3-18.64.86h-.02ZM151.18,313.2l6.01,1.78c5.63-.56,12.08-.86,18.64-.86,5.82,0,11.39.22,16.55.67l5.33-1.83c-6.85-.57-14.2-.86-21.87-.86-8.66,0-17.17.39-24.65,1.12h0Z"/>
              <g class="cls-1">
                <path class="cls-20" d="M188.49,341.84l-.54-.92c16.85-.29,32.83-1.18,47.48-2.64l2.69.8c-15.32,1.52-32.01,2.45-49.63,2.75h0ZM113.66,339.1c-15.09-1.5-28.49-3.57-38.72-6l4.35-.54c9.8,2.32,22.61,4.31,37.06,5.74l-2.69.8h0ZM289.41,329.33l-4.9-.38c6.92-2.64,10.43-5.46,10.43-8.38v-.05h5.38v.04c0,3.05-3.67,6-10.9,8.76h0ZM56.73,320.6h-5.38v-.02c0-3.04,3.65-5.98,10.84-8.74l4.91.38c-6.88,2.64-10.37,5.45-10.37,8.36v.02ZM272.3,308.57c-9.81-2.32-22.64-4.31-37.1-5.74l2.68-.8c15.11,1.49,28.51,3.57,38.76,5.99l-4.35.54h0ZM116.13,302.87l-2.7-.8c15.31-1.53,32-2.46,49.61-2.76l.55.92c-16.85.3-32.82,1.19-47.46,2.64h0Z"/>
              </g>
              <path class="cls-20" d="M175.89,333.28h-.53v-.23h.47c.7,0,1.46,0,2.19,0l.04.23c-.72,0-1.45,0-2.17,0ZM169.3,333.24c-.9-.01-1.8-.03-2.68-.05l.17-.23c.87.02,1.76.03,2.63.05l-.12.23h0ZM184.12,333.21l-.15-.23c.88-.02,1.77-.04,2.63-.06l.2.23c-.88.02-1.78.04-2.68.06ZM160.63,333.02c-.88-.03-1.77-.07-2.63-.1l.32-.22c.85.04,1.72.07,2.59.1l-.27.23h0ZM192.76,332.95l-.31-.22c.86-.03,1.72-.07,2.57-.11l.36.22c-.86.04-1.74.08-2.62.11ZM152.17,332.62c-.86-.05-1.72-.1-2.55-.16l.48-.22c.82.05,1.66.1,2.5.15l-.43.22h0ZM201.17,332.52l-.46-.22c.83-.05,1.67-.11,2.47-.16l.51.21c-.82.06-1.67.11-2.52.17h0ZM144.03,332.05c-.81-.07-1.63-.14-2.42-.21l.62-.2c.78.07,1.58.14,2.37.2l-.58.21h0ZM209.21,331.92l-.61-.21c.79-.07,1.58-.14,2.34-.21l.65.2c-.77.07-1.58.15-2.38.22h0ZM136.34,331.33c-.76-.08-1.51-.17-2.26-.26l.76-.19c.73.09,1.47.17,2.22.25l-.72.2h0ZM216.78,331.17l-.74-.19c.73-.08,1.46-.17,2.18-.26l.78.19c-.73.09-1.48.18-2.22.26h0ZM129.22,330.45c-.7-.1-1.39-.2-2.06-.3l.88-.17c.66.1,1.34.2,2.03.29l-.85.18h0ZM223.78,330.26l-.87-.18c.67-.1,1.33-.2,1.99-.3l.91.17c-.66.1-1.34.21-2.02.31ZM122.74,329.43c-.63-.11-1.25-.22-1.85-.34l1-.16c.59.11,1.2.22,1.81.33l-.96.16h0ZM230.11,329.22l-.98-.16c.6-.11,1.19-.22,1.77-.34l1.02.15c-.59.12-1.19.23-1.8.35h0ZM117.01,328.29c-.55-.12-1.08-.25-1.6-.37l1.1-.13c.51.12,1.04.25,1.57.37l-1.07.14h0ZM235.69,328.06l-1.09-.14c.52-.12,1.03-.25,1.52-.37l1.12.13c-.5.13-1.02.26-1.55.38h0ZM112.11,327.05c-.46-.13-.9-.27-1.33-.4l1.18-.11c.42.13.86.27,1.31.39l-1.16.12h0ZM240.43,326.79l-1.17-.11c.44-.13.86-.27,1.26-.4l1.2.11c-.41.13-.84.27-1.28.41h0ZM108.1,325.71c-.36-.14-.71-.28-1.04-.43l1.25-.09c.33.14.67.28,1.02.42l-1.23.09ZM244.26,325.43l-1.24-.09c.34-.14.67-.28.97-.42l1.26.08c-.31.14-.64.29-.99.43h0ZM105.04,324.3c-.26-.15-.51-.3-.74-.45l1.3-.06c.23.15.47.29.73.44l-1.28.07h0ZM247.13,324.01l-1.29-.06c.24-.15.46-.29.67-.44l1.31.05c-.21.15-.44.3-.68.45h0ZM102.97,322.84c-.16-.15-.3-.31-.43-.46l1.33-.03c.12.15.26.3.42.45l-1.32.04h0ZM248.98,322.54l-1.33-.03c.14-.15.26-.3.36-.45l1.33.03c-.11.15-.23.31-.37.46h0ZM101.94,321.34c-.05-.15-.09-.31-.11-.46h1.34c.02.15.06.3.11.45h-1.34ZM249.81,321.04h-1.34c.03-.16.05-.31.05-.46v-.03h1.34v.02c0,.16-.02.31-.05.47h0ZM103.27,319.85h-1.34c.05-.17.12-.32.2-.48l1.34.02c-.08.15-.15.3-.2.45ZM248.26,319.52c-.07-.15-.17-.3-.27-.45l1.33-.03c.11.15.2.31.27.46l-1.34.02h0ZM104.27,318.38l-1.32-.04c.16-.15.33-.3.52-.46l1.31.05c-.19.15-.36.3-.51.45h0ZM247.04,318.06c-.18-.15-.37-.3-.58-.44l1.31-.06c.21.15.41.3.59.45l-1.32.05h0ZM106.28,316.94l-1.29-.07c.26-.15.55-.3.84-.44l1.27.08c-.28.14-.56.29-.82.43h0ZM244.82,316.63c-.28-.15-.58-.29-.88-.43l1.26-.08c.31.14.61.29.9.44l-1.27.07h0ZM109.27,315.55l-1.23-.09c.36-.14.74-.28,1.13-.42l1.21.1c-.38.14-.76.28-1.12.41h0ZM241.62,315.26c-.37-.14-.77-.27-1.17-.41l1.19-.11c.41.14.81.28,1.19.41l-1.22.1h0ZM113.2,314.24l-1.16-.12c.46-.13.93-.27,1.42-.4l1.13.12c-.47.13-.94.26-1.39.39h0ZM237.5,313.96c-.47-.13-.95-.26-1.44-.38l1.11-.13c.5.13.99.26,1.47.39l-1.14.12h0ZM118.02,313.01l-1.07-.14c.55-.12,1.11-.25,1.68-.36l1.04.15c-.56.12-1.11.24-1.65.36h0ZM232.51,312.76c-.55-.12-1.12-.23-1.7-.35l1.02-.15c.59.12,1.17.24,1.73.36l-1.05.15h0ZM123.63,311.89l-.96-.16c.63-.11,1.27-.22,1.91-.33l.93.17c-.63.1-1.26.21-1.88.32h0ZM226.73,311.66c-.63-.11-1.28-.21-1.93-.31l.91-.17c.66.1,1.32.21,1.96.32l-.94.17h0ZM129.98,310.89l-.85-.18c.7-.1,1.41-.19,2.12-.29l.81.18c-.7.09-1.4.18-2.08.28h0ZM220.24,310.69c-.7-.09-1.41-.18-2.13-.27l.78-.19c.73.09,1.46.18,2.17.28l-.82.18ZM136.96,310.02l-.72-.19c.75-.08,1.52-.16,2.3-.24l.68.2c-.77.08-1.53.16-2.26.24ZM213.13,309.86c-.75-.08-1.53-.15-2.3-.23l.65-.2c.79.07,1.58.15,2.34.23l-.69.2ZM144.49,309.31l-.58-.21c.81-.07,1.63-.13,2.45-.19l.53.21c-.8.06-1.61.12-2.41.19h0ZM205.49,309.17c-.81-.06-1.63-.12-2.44-.18l.5-.21c.83.06,1.67.12,2.49.18l-.55.21ZM152.45,308.75l-.43-.22c.85-.05,1.72-.1,2.57-.14l.38.22c-.84.04-1.69.09-2.53.14h0ZM197.42,308.65c-.84-.04-1.7-.09-2.55-.13l.35-.22c.86.04,1.73.08,2.59.13l-.4.22h0ZM160.75,308.36l-.28-.23c.88-.03,1.77-.06,2.65-.09l.23.23c-.86.02-1.74.06-2.6.09h0ZM189.06,308.3c-.87-.03-1.75-.05-2.62-.07l.19-.23c.88.02,1.78.05,2.66.08l-.24.23h0ZM169.27,308.14l-.12-.23c.89-.01,1.8-.02,2.69-.03l.07.23c-.88,0-1.77.02-2.64.03ZM180.52,308.12c-.88-.01-1.77-.02-2.65-.02l.04-.23c.89,0,1.8.01,2.7.02l-.08.23h0Z"/>
              <g class="cls-6">
                <path class="cls-20" d="M178.13,337.24l-.47-3.46c.8,0,1.59,0,2.39-.02l1.08,3.46c-1,0-2.01.02-3,.02h0ZM160.2,337.03c-.98-.03-1.97-.06-2.96-.09l3.84-3.4c.78.03,1.56.05,2.34.07l-3.22,3.42h0ZM198.94,336.77l-4.79-3.36c.77-.03,1.54-.07,2.31-.1l5.39,3.34c-.95.04-1.93.09-2.91.13h0ZM139.95,336.07c-.93-.06-1.87-.13-2.78-.2l8.04-3.18c.73.06,1.46.11,2.2.16l-7.46,3.22ZM218.67,335.54l-8.9-3.11c.71-.06,1.41-.12,2.11-.19l9.47,3.06c-.89.08-1.79.16-2.68.23h0ZM121.39,334.38c-.83-.1-1.66-.2-2.46-.3l11.83-2.8c.64.08,1.29.16,1.95.23l-11.32,2.86h0ZM236.39,333.61l-12.59-2.7c.62-.09,1.24-.17,1.84-.26l13.06,2.64c-.75.11-1.53.22-2.31.33h0ZM105.39,332.05c-.7-.13-1.38-.25-2.04-.38l15.06-2.3c.53.1,1.06.2,1.61.3l-14.63,2.38h0ZM251.28,331.07l-15.67-2.18c.5-.11,1-.21,1.48-.32l16.04,2.1c-.6.13-1.22.27-1.85.4h0ZM92.68,329.18c-.52-.15-1.02-.3-1.51-.45l17.57-1.7c.39.12.78.23,1.19.35l-17.26,1.79h0ZM262.66,328.04l-18.02-1.55c.36-.12.7-.25,1.04-.37l18.29,1.46c-.42.16-.86.31-1.31.47h0ZM83.84,325.91c-.32-.16-.63-.33-.92-.49l19.29-1c.23.13.47.26.72.39l-19.1,1.11h0ZM269.98,324.66l-19.54-.85c.19-.13.37-.26.54-.39l19.7.74c-.22.17-.45.34-.69.5h0ZM79.32,322.39c-.11-.17-.2-.34-.28-.51l20.1-.27c.06.14.13.27.22.41l-20.04.37h0ZM272.87,321.09l-20.15-.11c.02-.13.04-.27.04-.41v-.03h20.16v.03c0,.17-.01.35-.05.51h0ZM99.35,319.16l-20.05-.37c.11-.17.23-.34.36-.51l19.97.47c-.11.13-.2.27-.29.41h0ZM251.42,318.11c-.15-.13-.31-.27-.48-.4l19.69-.75c.22.17.42.34.61.51l-19.81.64h0ZM102.89,316.37l-19.12-1.1c.32-.16.66-.33,1-.49l18.9,1.2c-.28.13-.54.26-.8.39h0ZM246.58,315.38c-.31-.12-.64-.25-.97-.37l18.28-1.46c.41.15.82.31,1.22.47l-18.52,1.37h0ZM109.86,313.78l-17.28-1.78c.52-.15,1.06-.3,1.59-.44l16.94,1.88c-.43.11-.85.23-1.26.35h0ZM238.42,312.89c-.46-.11-.94-.22-1.42-.33l16.02-2.1c.61.14,1.21.28,1.78.41l-16.39,2.02h0ZM119.93,311.5l-14.65-2.38c.68-.12,1.39-.25,2.1-.37l14.22,2.46c-.56.1-1.12.19-1.66.29h0ZM227.33,310.76c-.59-.09-1.19-.18-1.8-.27l13.03-2.64c.76.11,1.52.22,2.26.34l-13.5,2.57h0ZM132.59,309.65l-11.35-2.86c.83-.1,1.68-.19,2.51-.28l10.82,2.92c-.67.07-1.33.15-1.98.22ZM213.85,309.09c-.69-.07-1.39-.13-2.09-.2l9.43-3.06c.88.08,1.76.16,2.64.25l-9.97,3.01ZM147.26,308.3l-7.49-3.21c.93-.06,1.87-.13,2.81-.18l6.9,3.25c-.75.05-1.49.1-2.22.15h0ZM198.59,307.95c-.76-.04-1.52-.08-2.28-.11l5.35-3.34c.97.04,1.94.09,2.89.15l-5.96,3.31h0ZM163.26,307.54l-3.27-3.42c.98-.03,1.98-.05,2.97-.08l2.65,3.43c-.79.02-1.57.04-2.35.06h0ZM182.27,307.41c-.79-.01-1.58-.02-2.38-.03l1.04-3.46c.99,0,2,.02,2.99.03l-1.66,3.45h0Z"/>
              </g>
              <g class="cls-5">
                <path class="cls-20" d="M169.73,344.2c-2.74-.02-5.5-.06-8.21-.1l.76-1.26c2.57.04,5.18.08,7.77.1l-.32,1.27h0ZM186.19,344.15l-.55-1.27c2.58-.03,5.19-.08,7.75-.14l.98,1.26c-2.71.06-5.47.11-8.19.15ZM145.27,343.64c-2.67-.1-5.36-.22-7.97-.35l2.07-1.22c2.48.12,5.02.24,7.54.34l-1.63,1.24h0ZM210.54,343.46l-1.86-1.23c2.5-.11,5.02-.24,7.48-.38l2.29,1.21c-2.6.15-5.26.28-7.91.4ZM121.78,342.33c-2.52-.18-5.03-.38-7.48-.59l3.31-1.14c2.32.2,4.7.39,7.08.56l-2.91,1.17h0ZM233.77,342.03l-3.11-1.15c2.34-.19,4.68-.39,6.96-.6l3.51,1.12c-2.41.22-4.88.44-7.36.63h0ZM100.03,340.32c-2.28-.26-4.55-.53-6.74-.82l4.44-1.02c2.07.27,4.21.53,6.38.77l-4.07,1.06h0ZM255.12,339.91l-4.26-1.04c2.11-.26,4.21-.53,6.23-.8l4.61.99c-2.14.29-4.35.58-6.58.85h0ZM80.73,337.67c-1.98-.32-3.92-.66-5.78-1.01l5.41-.86c1.76.32,3.6.65,5.47.95l-5.11.92h0ZM273.93,337.17l-5.27-.89c1.82-.32,3.6-.65,5.3-.98l5.57.84c-1.8.35-3.69.7-5.6,1.04h0ZM64.48,334.49c-1.61-.38-3.18-.77-4.65-1.17l6.22-.68c1.39.37,2.87.74,4.4,1.1l-5.97.75h0ZM289.61,333.9l-6.1-.72c1.46-.37,2.88-.75,4.21-1.13l6.34.65c-1.4.4-2.9.81-4.44,1.19h0ZM51.79,330.85c-1.19-.42-2.32-.86-3.36-1.29l6.84-.48c.98.41,2.05.82,3.18,1.22l-6.66.55h0ZM301.66,330.19l-6.75-.52c1.06-.41,2.05-.82,2.96-1.24l6.92.45c-.96.44-2.02.88-3.13,1.31h0ZM43.1,326.89c-.73-.45-1.39-.92-1.95-1.38l7.23-.26c.54.44,1.16.87,1.85,1.3l-7.13.34h0ZM309.64,326.18l-7.18-.3c.61-.43,1.15-.87,1.61-1.31l7.27.22c-.49.46-1.06.93-1.7,1.38h0ZM38.69,322.72c-.24-.47-.41-.94-.49-1.41l7.39-.04c.08.45.24.89.47,1.34l-7.36.11h0ZM313.29,321.99l-7.38-.08c.15-.44.23-.89.23-1.34v-.05h7.39v.05c0,.47-.08.95-.24,1.41h0ZM46.03,318.59l-7.36-.11c.24-.47.56-.94.96-1.4l7.31.19c-.38.44-.69.89-.91,1.33h0ZM305.19,317.85c-.31-.44-.7-.89-1.17-1.32l7.27-.23c.49.46.9.93,1.23,1.4l-7.34.15h0ZM50.15,314.64l-7.13-.34c.72-.45,1.54-.91,2.42-1.35l7,.41c-.83.42-1.6.85-2.29,1.28h0ZM300.31,313.93c-.77-.42-1.62-.85-2.53-1.26l6.92-.45c.96.44,1.86.89,2.68,1.34l-7.06.38h0ZM58.33,310.89l-6.66-.55c1.19-.42,2.46-.85,3.8-1.26l6.46.62c-1.26.39-2.47.79-3.59,1.19ZM291.4,310.23c-1.2-.39-2.48-.78-3.81-1.17l6.34-.65c1.41.4,2.76.82,4.03,1.23l-6.55.59h0ZM70.31,307.44l-5.98-.75c1.61-.38,3.3-.76,5.04-1.12l5.71.81c-1.64.34-3.25.7-4.77,1.06h0ZM278.78,306.85c-1.58-.35-3.25-.7-4.96-1.03l5.56-.84c1.81.35,3.57.72,5.24,1.09l-5.84.78h0ZM85.67,304.42l-5.11-.92c1.97-.32,4.03-.64,6.11-.95l4.79.97c-1.97.29-3.92.59-5.79.9h0ZM262.86,303.92c-1.93-.3-3.93-.59-5.96-.86l4.6-.99c2.14.29,4.26.6,6.29.91l-4.94.94h0ZM103.91,301.91l-4.09-1.06c2.28-.26,4.63-.51,6.99-.75l3.71,1.1c-2.24.22-4.46.46-6.62.7h0ZM244.15,301.51c-2.2-.23-4.48-.46-6.76-.67l3.5-1.12c2.41.22,4.82.46,7.14.71l-3.88,1.08h0ZM124.43,300l-2.92-1.17c2.51-.19,5.08-.36,7.65-.52l2.5,1.2c-2.43.15-4.86.31-7.24.49h0ZM223.24,299.72c-2.42-.16-4.89-.31-7.35-.45l2.27-1.21c2.6.15,5.22.3,7.77.48l-2.69,1.18h0ZM146.62,298.76l-1.65-1.24c2.66-.1,5.38-.2,8.08-.27l1.21,1.25c-2.55.07-5.13.16-7.64.26ZM200.79,298.61c-2.54-.08-5.12-.16-7.69-.21l.97-1.26c2.71.06,5.45.14,8.13.23l-1.41,1.25h0ZM169.76,298.22l-.34-1.27c2.73-.02,5.5-.03,8.23-.02l-.09,1.27c-2.59,0-5.22,0-7.8.02h0Z"/>
              </g>
              <polygon class="cls-3" points="255.12 339.91 250.86 338.87 257.09 338.07 261.7 339.06 255.12 339.91"/>
              <polygon class="cls-3" points="252.72 320.98 252.76 320.57 272.92 320.57 272.87 321.09 252.72 320.98"/>
              <polygon class="cls-3" points="110.78 326.64 111.96 326.53 113.26 326.93 112.11 327.05 110.78 326.64"/>
              <polygon class="cls-3" points="163.26 307.54 160 304.12 162.97 304.05 165.62 307.48 163.26 307.54"/>
              <polygon class="cls-3" points="104.1 339.26 100.03 340.32 93.29 339.5 97.73 338.49 104.1 339.26"/>
              <polygon class="cls-3" points="137.29 343.28 139.36 342.06 146.9 342.4 145.27 343.64 137.29 343.28"/>
              <polygon class="cls-3" points="137.16 335.87 139.95 336.07 147.4 332.85 145.2 332.69 137.16 335.87"/>
              <path class="cls-3" d="M113.66,339.1l2.69-.8s-20.14-1.94-37.06-5.74l-4.35.54s18.34,4.37,38.72,6h0Z"/>
              <polygon class="cls-3" points="104.3 322.79 103.88 322.35 102.55 322.38 102.97 322.84 104.3 322.79"/>
              <polygon class="cls-3" points="268.66 336.28 273.97 335.3 279.53 336.13 273.93 337.17 268.66 336.28"/>
              <polygon class="cls-3" points="196.31 307.84 198.59 307.95 204.54 304.64 201.65 304.5 196.31 307.84"/>
            </g>
            <path class="cls-2" d="M177.22,320.79c-1.53-.01-3.08-.03-4.6-.06l.43-.71c1.44.02,2.91.04,4.36.06l-.18.71h0ZM186.44,320.76l-.31-.71c1.45-.02,2.91-.04,4.34-.08l.55.7c-1.52.03-3.06.06-4.59.08ZM163.51,320.47c-1.5-.06-3-.12-4.47-.2l1.16-.68c1.39.07,2.81.13,4.23.19l-.92.69h0ZM200.09,320.37l-1.04-.69c1.4-.06,2.81-.13,4.19-.21l1.28.68c-1.46.08-2.95.16-4.43.22ZM150.34,319.74c-1.41-.1-2.82-.22-4.19-.33l1.85-.64c1.3.11,2.63.22,3.97.32l-1.63.65h0ZM213.11,319.57l-1.74-.65c1.31-.1,2.62-.22,3.9-.34l1.97.63c-1.35.12-2.74.25-4.12.36h0ZM138.15,318.61c-1.28-.15-2.55-.3-3.78-.46l2.49-.57c1.16.15,2.36.29,3.57.43l-2.28.59ZM225.07,318.38l-2.39-.58c1.18-.14,2.36-.29,3.49-.45l2.59.56c-1.2.16-2.44.32-3.69.48h0ZM127.34,317.13c-1.11-.18-2.2-.37-3.24-.56l3.04-.48c.99.18,2.02.36,3.07.53l-2.86.51ZM235.62,316.85l-2.95-.5c1.02-.18,2.02-.36,2.97-.55l3.12.47c-1.01.2-2.06.39-3.14.58h0ZM118.23,315.34c-.9-.21-1.78-.43-2.6-.65l3.49-.38c.78.21,1.61.42,2.47.62l-3.35.42h0ZM244.41,315.01l-3.42-.4c.82-.21,1.61-.42,2.36-.63l3.55.37c-.79.23-1.63.45-2.49.67h0ZM111.12,313.31c-.67-.24-1.3-.48-1.88-.72l3.83-.27c.55.23,1.15.46,1.78.68l-3.73.31h0ZM251.16,312.94l-3.79-.29c.59-.23,1.15-.46,1.66-.69l3.88.25c-.54.25-1.13.49-1.76.74h0ZM106.25,311.08c-.41-.25-.78-.51-1.09-.77l4.05-.15c.3.24.65.49,1.04.73l-3.99.19h0ZM255.63,310.69l-4.03-.17c.34-.24.65-.49.9-.73l4.08.13c-.27.26-.59.52-.96.78h0ZM103.78,308.75c-.14-.26-.23-.53-.28-.79l4.14-.02c.04.25.13.5.26.75l-4.13.06h0ZM257.68,308.34l-4.14-.04c.08-.25.13-.5.13-.75v-.03h4.14v.03c0,.26-.05.53-.14.79h0ZM107.89,306.43l-4.13-.06c.13-.26.32-.53.54-.79l4.1.1c-.21.25-.38.5-.51.75h0ZM253.14,306.02c-.18-.25-.39-.5-.65-.74l4.08-.13c.27.26.51.52.69.78l-4.11.09h0ZM110.2,304.22l-4-.19c.4-.25.86-.51,1.35-.76l3.92.23c-.47.23-.9.48-1.28.72h0ZM250.4,303.82c-.43-.24-.91-.48-1.42-.71l3.88-.25c.54.25,1.04.5,1.5.75l-3.96.21h0ZM114.78,302.12l-3.73-.31c.66-.24,1.38-.47,2.13-.7l3.62.35c-.71.22-1.38.44-2.01.67h0ZM245.41,301.75c-.67-.22-1.39-.44-2.14-.65l3.55-.37c.79.22,1.55.46,2.26.69l-3.67.33ZM121.5,300.19l-3.35-.42c.9-.21,1.85-.42,2.82-.63l3.2.45c-.92.19-1.82.39-2.67.59ZM238.34,299.85c-.89-.2-1.82-.39-2.78-.58l3.11-.47c1.01.2,2,.4,2.94.61l-3.27.44ZM130.11,298.49l-2.87-.51c1.11-.18,2.26-.36,3.43-.53l2.68.54c-1.1.16-2.2.33-3.24.5h0ZM229.41,298.21c-1.08-.17-2.2-.33-3.34-.48l2.58-.56c1.2.16,2.39.34,3.52.51l-2.77.53h0ZM140.33,297.09l-2.29-.59c1.28-.15,2.6-.29,3.92-.42l2.08.62c-1.25.12-2.5.26-3.71.4h0ZM218.93,296.86c-1.23-.13-2.51-.26-3.79-.38l1.96-.63c1.35.12,2.7.26,4,.4l-2.18.6h0ZM151.83,296.02l-1.64-.65c1.4-.1,2.85-.2,4.29-.29l1.4.67c-1.36.08-2.73.18-4.06.27ZM207.21,295.86c-1.35-.09-2.74-.18-4.12-.25l1.27-.68c1.46.08,2.93.17,4.36.27l-1.51.66h0ZM164.26,295.32l-.93-.69c1.49-.06,3.02-.11,4.53-.15l.68.7c-1.43.04-2.87.09-4.28.15h0ZM194.63,295.23c-1.42-.05-2.87-.09-4.31-.12l.54-.7c1.52.03,3.05.08,4.56.13l-.79.7h0ZM177.23,295.02l-.19-.71c1.53-.01,3.09-.02,4.62-.01l-.05.71c-1.45,0-2.93,0-4.37.01Z"/>
            <path class="cls-16" d="M183.97,320.51c0,2.6-3.85,4.71-8.6,4.71s-8.6-2.11-8.6-4.71,3.85-4.71,8.6-4.71,8.6,2.11,8.6,4.71Z"/>
            <ellipse class="cls-11" cx="163.06" cy="306.85" rx="10.14" ry="5.55"/>
            <ellipse class="cls-4" cx="176.1" cy="320.57" rx="29.02" ry="5.03"/>
            <g>
              <path class="cls-2" d="M173.85,286.23c0,.34-.28.61-.62.61s-.62-.27-.62-.61.28-.61.62-.61.62.27.62.61Z"/>
              <ellipse class="cls-2" cx="164.18" cy="196.27" rx=".62" ry=".61"/>
              <ellipse class="cls-2" cx="152.55" cy="284.99" rx=".62" ry=".61"/>
              <path class="cls-2" d="M1.24,291.19c0,.34-.28.61-.62.61s-.62-.27-.62-.61.28-.61.62-.61.62.27.62.61Z"/>
              <ellipse class="cls-2" cx="174.53" cy="311.14" rx=".62" ry=".61"/>
              <ellipse class="cls-2" cx="177.4" cy="262.29" rx=".62" ry=".61"/>
              <path class="cls-2" d="M214.18,281.09c0,.34-.28.61-.62.61s-.62-.27-.62-.61.28-.61.62-.61.62.27.62.61Z"/>
              <ellipse class="cls-2" cx="139.64" cy="151.43" rx=".62" ry=".61"/>
              <path class="cls-2" d="M348.1,246.18c0,.34-.28.61-.62.61s-.62-.27-.62-.61.28-.61.62-.61.62.27.62.61Z"/>
              <ellipse class="cls-2" cx="173.19" cy="316.12" rx=".62" ry=".61"/>
              <path class="cls-2" d="M189.95,288.24c0,.09-.07.16-.16.16s-.16-.07-.16-.16.07-.16.16-.16.16.07.16.16Z"/>
              <path class="cls-2" d="M159.03,283.27c0,.09-.07.16-.16.16s-.16-.07-.16-.16.07-.16.16-.16.16.07.16.16Z"/>
              <path class="cls-2" d="M194.08,273.56c0,.09-.07.16-.16.16s-.16-.07-.16-.16.07-.16.16-.16.16.07.16.16Z"/>
              <path class="cls-2" d="M159.3,298.22c0,.09-.07.16-.16.16s-.16-.07-.16-.16.07-.16.16-.16.16.07.16.16Z"/>
              <path class="cls-2" d="M138.37,290.29c0,.09-.07.16-.16.16s-.16-.07-.16-.16.07-.16.16-.16.16.07.16.16Z"/>
              <path class="cls-2" d="M194.54,314.49c0,.09-.07.16-.16.16s-.16-.07-.16-.16.07-.16.16-.16.16.07.16.16Z"/>
              <circle class="cls-2" cx="182.37" cy="312.26" r=".16"/>
              <path class="cls-2" d="M168.06,300.98c0,.18-.14.32-.32.32s-.32-.14-.32-.32.14-.32.32-.32.32.14.32.32Z"/>
              <path class="cls-2" d="M153.63,313.93c0,.18-.14.32-.32.32s-.32-.14-.32-.32.14-.32.32-.32.32.14.32.32Z"/>
              <path class="cls-2" d="M184.62,303.82c0,.18-.14.32-.32.32s-.32-.14-.32-.32.14-.32.32-.32.32.14.32.32Z"/>
              <path class="cls-2" d="M179.72,268.73c0,.18-.14.32-.32.32s-.32-.14-.32-.32.14-.32.32-.32.32.14.32.32Z"/>
              <path class="cls-2" d="M210.1,301.29c0,.18-.14.32-.32.32s-.32-.14-.32-.32.14-.32.32-.32.32.14.32.32Z"/>
            </g>
          </g>
        </g>
      </g>
    </g>
    <ellipse class="cls-18" cx="100.55" cy="339.59" rx="16.56" ry="9.07"/>
    <ellipse class="cls-13" cx="175.37" cy="320.79" rx="121.28" ry="23.86"/>
    <ellipse class="cls-17" cx="256.59" cy="338.99" rx="16.56" ry="9.07"/>
  </g>
</svg>