<?xml version="1.0" encoding="UTF-8"?>
<svg id="Calque_2" xmlns="http://www.w3.org/2000/svg" version="1.1" xmlns:xlink="http://www.w3.org/1999/xlink" viewBox="0 0 1148 760.5">
  <!-- Generator: Adobe Illustrator 29.1.0, SVG Export Plug-In . SVG Version: 2.1.0 Build 142)  -->
  <defs>
    <style>
      .st0 {
        fill: url(#radial-gradient);
      }

      .st1 {
        fill: #91dbaf;
      }

      .st2 {
        fill: #bad8c6;
      }

      .st3 {
        fill: #e1e2e2;
      }
    </style>
    <radialGradient id="radial-gradient" cx="587.3" cy="70.7" fx="587.3" fy="70.7" r="561.8" gradientTransform="translate(0 -14) scale(1 1.2)" gradientUnits="userSpaceOnUse">
      <stop offset="0" stop-color="#f7f7f7"/>
      <stop offset="1" stop-color="#a7acae"/>
    </radialGradient>
  </defs>
  <g>
    <path class="st1" d="M0,632.8l41.2-104.9h30l41.2,104.9h-28.5l-6-16.5h-43.5l-6,16.5H0ZM42.7,593.8h27l-10.8-30.3c-.9-2.5-1.8-5.1-2.7-10.6-.9,5.5-1.8,8.1-2.7,10.6l-10.8,30.3h0Z"/>
    <path class="st1" d="M150.2,527.9v104.9h-27.7v-104.9h27.7Z"/>
    <path class="st3" d="M295.5,527.9v104.9h-27.7v-40h-39v40h-27.7v-104.9h27.7v40.2h39v-40.2h27.7Z"/>
    <path class="st3" d="M305.5,632.8l41.2-104.9h30l41.2,104.9h-28.5l-6-16.5h-43.5l-6,16.5h-28.5ZM348.3,593.8h27l-10.8-30.3c-.9-2.5-1.8-5.1-2.7-10.6-.9,5.5-1.8,8.1-2.7,10.6l-10.8,30.3h0Z"/>
    <path class="st3" d="M474.6,525.6c10.6,0,21.3,2.2,30.4,6.6v26.2c-6.4-5.4-16-8.5-25.6-8.5-16.6,0-33.1,9.1-33.1,31.9s16.5,28.8,32.8,28.8,20.7-3.3,26.7-9.1v27c-9.1,4.3-19.5,6.6-30.6,6.6-28.8,0-57.4-15.7-57.4-53.2s28.5-56.2,56.8-56.2h0Z"/>
    <path class="st3" d="M521,632.8v-104.9h27.7v39.7h13.2l23.8-39.7h30.7l-33,51.1,34.5,53.8h-30.7l-25.5-40.5h-13v40.5h-27.7Z"/>
    <path class="st3" d="M617.1,632.8l41.2-104.9h30l41.2,104.9h-28.5l-6-16.5h-43.5l-6,16.5h-28.5ZM659.8,593.8h27l-10.8-30.3c-.9-2.5-1.8-5.1-2.7-10.6-.9,5.5-1.8,8.1-2.7,10.6l-10.8,30.3h0Z"/>
    <path class="st3" d="M805.9,527.9v24.7h-29.5v80.2h-27.7v-80.2h-29.7v-24.7h86.9,0Z"/>
    <path class="st3" d="M912.2,527.9v104.9h-27.7v-40h-39v40h-27.7v-104.9h27.7v40.2h39v-40.2h27.7Z"/>
    <path class="st3" d="M982.9,525.6c37.5,0,56.2,25.5,56.2,54.7s-18.7,54.7-56.2,54.7-56.2-25.5-56.2-54.7,18.7-54.7,56.2-54.7h0ZM982.9,551.1c-18.1,0-27.7,12.4-27.7,29.2s9.6,29.2,27.7,29.2,27.7-12.4,27.7-29.2-9.6-29.2-27.7-29.2Z"/>
    <path class="st3" d="M1053.6,632.8v-104.9h26.2l41.1,60.2c-.4-5-.6-11.5-.6-17.4v-42.9h27.7v104.9h-26.2l-41.1-60.1c.4,5,.6,11.5.6,17.2v42.9h-27.7Z"/>
  </g>
  <g>
    <path class="st3" d="M351.9,676.8c18.3,0,34.5,5.7,34.5,25.6s-16.2,25.6-34.5,25.6h-22.6v31.4h-3v-82.6h25.6ZM352,679.6h-22.8v45.5h22.8c16.9,0,31.4-4.8,31.4-22.8s-14.4-22.8-31.4-22.8h0Z"/>
    <path class="st3" d="M403.1,759.4v-82.6h31c13.6,0,29,6.2,29,24s-13.6,23.1-26.4,23.8l31.6,34.8h-3.7l-31.4-34.7h-27.2v34.7h-3,0ZM406,721.8h28.2c12.1,0,26-5.2,26-21.1s-13.8-21.1-26-21.1h-28.2v42.2Z"/>
    <path class="st3" d="M519.9,675.6c28.5,0,42.6,22.1,42.6,42.5s-14,42.5-42.6,42.5-42.6-22.1-42.6-42.5,14-42.5,42.6-42.5ZM519.9,678.4c-26.5,0-39.6,20.4-39.6,39.6s13.1,39.6,39.6,39.6,39.6-20.4,39.6-39.6-13.1-39.6-39.6-39.6Z"/>
    <path class="st3" d="M613.9,676.8v60.9c0,15.6-10.7,22.9-25.1,22.9s-15.8-1.7-21.1-5.1v-3c5.4,3.5,12.9,5.2,20.8,5.2,13.1,0,22.5-6.2,22.5-20.1v-58h-27.2v-2.8h30.2Z"/>
    <path class="st3" d="M691.4,676.8v2.8h-50.7v36.8h47.2v2.8h-47.2v37.3h51.8v2.8h-54.7v-82.6h53.7Z"/>
    <path class="st3" d="M746.7,675.6c8.3,0,16.5,1.9,23.1,5.7v3c-6.2-3.7-14.5-5.8-22.8-5.8-19.3,0-39.8,13.5-39.8,40.7s20.5,38.6,40,38.6,17-2,23.6-5.9v3c-6.5,3.8-14.8,5.8-24.1,5.8-20.5,0-42.5-13.2-42.5-41.4s21.8-43.5,42.4-43.5h0Z"/>
    <path class="st3" d="M843.9,676.8v2.8h-31.7v79.8h-3v-79.8h-31.7v-2.8h66.4Z"/>
  </g>
  <g>
    <path class="st2" d="M211.3,344.3c-.2,0-.5,0-.7-.3-.5-.4-.5-1.1-.1-1.5l20.1-23.7c.2-.2.5-.4.8-.4h77.1c.6,0,1.1.5,1.1,1.1s-.5,1.1-1.1,1.1h-76.6l-19.8,23.3c-.2.2-.5.4-.8.4Z"/>
    <path class="st2" d="M213.9,349.3c0-4.3-3.4-7.7-7.6-7.7s-7.6,3.5-7.6,7.7,3.4,7.7,7.6,7.7,7.6-3.5,7.6-7.7Z"/>
    <path class="st2" d="M254.4,355.5c0-4.3-3.4-7.7-7.6-7.7s-7.6,3.5-7.6,7.7,3.4,7.7,7.6,7.7,7.6-3.5,7.6-7.7Z"/>
    <path class="st2" d="M280.2,246.6h-96.5c-.3,0-.6-.1-.8-.4l-20.1-23.6c-.4-.5-.3-1.1.1-1.5.5-.4,1.1-.3,1.5.1l19.8,23.3h96c.6,0,1.1.5,1.1,1.1s-.5,1.1-1.1,1.1Z"/>
    <path class="st2" d="M166.1,215.8c0,4.3-3.4,7.7-7.6,7.7s-7.6-3.5-7.6-7.7,3.4-7.7,7.6-7.7,7.6,3.5,7.6,7.7Z"/>
    <path class="st2" d="M260.4,194.1h-72.9c-.3,0-.6-.1-.8-.4l-20.1-23.6c-.4-.5-.3-1.1.1-1.5.5-.4,1.1-.3,1.5.1l19.8,23.3h72.4c.6,0,1.1.5,1.1,1.1s-.5,1.1-1.1,1.1Z"/>
    <path class="st2" d="M169.9,163.3c0,4.3-3.4,7.7-7.6,7.7s-7.6-3.5-7.6-7.7,3.4-7.7,7.6-7.7,7.6,3.5,7.6,7.7Z"/>
    <path class="st2" d="M131.1,144c-.2,0-.5,0-.7-.3-.5-.4-.5-1.1-.1-1.5l20.1-23.7c.2-.2.5-.4.8-.4h36.4c.3,0,.6.1.8.4l10.8,13.5h35.9c.6,0,1.1.5,1.1,1.1s-.5,1.1-1.1,1.1h-36.5c-.3,0-.6-.1-.8-.4l-10.8-13.5h-35.4l-19.8,23.3c-.2.2-.5.4-.8.4Z"/>
    <path class="st2" d="M133.8,149c0-4.3-3.4-7.7-7.6-7.7s-7.6,3.5-7.6,7.7,3.4,7.7,7.6,7.7,7.6-3.5,7.6-7.7Z"/>
    <path class="st2" d="M242.3,447.4h-36.4c-.3,0-.6-.1-.8-.4l-20.1-23.7c-.4-.5-.3-1.1.1-1.5.5-.4,1.1-.3,1.5.1l19.8,23.3h35.3l10.8-13.5c.2-.3.5-.4.8-.4h86.1l13.2-13.5c.4-.4,1.1-.4,1.5,0,.4.4.4,1.1,0,1.5l-13.6,13.9c-.2.2-.5.3-.8.3h-86.1l-10.8,13.5c-.2.3-.5.4-.8.4Z"/>
    <path class="st2" d="M188.5,416.6c0,4.3-3.4,7.7-7.6,7.7s-7.6-3.5-7.6-7.7,3.4-7.7,7.6-7.7,7.6,3.5,7.6,7.7Z"/>
    <path class="st2" d="M131.1,119.4c-.2,0-.5,0-.7-.3-.5-.4-.5-1.1-.1-1.5l20.1-23.6c.2-.2.5-.4.8-.4h41.9c.3,0,.6.1.8.4l10.8,13.4h36.3c.6,0,1.1.5,1.1,1.1s-.5,1.1-1.1,1.1h-36.8c-.3,0-.6-.1-.8-.4l-10.8-13.4h-40.9l-19.8,23.3c-.2.2-.5.4-.8.4Z"/>
    <path class="st2" d="M133.8,124.4c0-4.3-3.4-7.7-7.6-7.7s-7.6,3.5-7.6,7.7,3.4,7.7,7.6,7.7,7.6-3.5,7.6-7.7Z"/>
    <path class="st2" d="M105.6,92.2c-.2,0-.5,0-.7-.3-.5-.4-.5-1.1-.1-1.5l20.1-23.7c.2-.2.5-.4.8-.4h113.5c.6,0,1.1.5,1.1,1.1s-.5,1.1-1.1,1.1h-113l-19.8,23.3c-.2.2-.5.4-.8.4Z"/>
    <path class="st2" d="M108.2,97.2c0-4.3-3.4-7.7-7.6-7.7s-7.6,3.5-7.6,7.7,3.4,7.7,7.6,7.7,7.6-3.5,7.6-7.7Z"/>
    <path class="st2" d="M227.1,417.8c-.2,0-.5,0-.7-.3-.5-.4-.5-1.1-.1-1.5l20.1-23.6c.2-.2.5-.4.8-.4h86c.6,0,1.1.5,1.1,1.1s-.5,1.1-1.1,1.1h-85.5l-19.8,23.3c-.2.2-.5.4-.8.4Z"/>
    <path class="st2" d="M229.7,422.8c0-4.3-3.4-7.7-7.6-7.7s-7.6,3.5-7.6,7.7,3.4,7.7,7.6,7.7,7.6-3.5,7.6-7.7Z"/>
    <path class="st2" d="M176.1,344.3c-.2,0-.5,0-.7-.3-.5-.4-.5-1.1-.1-1.5l35.2-41.3c.2-.2.5-.4.8-.4h90.7c.6,0,1.1.5,1.1,1.1s-.5,1.1-1.1,1.1h-90.2l-34.9,40.9c-.2.2-.5.4-.8.4Z"/>
    <path class="st2" d="M178.7,349.3c0-4.3-3.4-7.7-7.6-7.7s-7.6,3.5-7.6,7.7,3.4,7.7,7.6,7.7,7.6-3.5,7.6-7.7Z"/>
    <path class="st2" d="M287.1,265.6h-119.8c-.6,0-1.1-.5-1.1-1.1s.5-1.1,1.1-1.1h119.8c.6,0,1.1.5,1.1,1.1s-.5,1.1-1.1,1.1Z"/>
    <path class="st2" d="M167.3,264.5c0-4.3-3.4-7.7-7.6-7.7s-7.6,3.5-7.6,7.7,3.4,7.7,7.6,7.7,7.6-3.5,7.6-7.7Z"/>
    <path class="st2" d="M273.2,222.9h-70.6c-.6,0-1.1-.5-1.1-1.1s.5-1.1,1.1-1.1h70.6c.6,0,1.1.5,1.1,1.1s-.5,1.1-1.1,1.1Z"/>
    <path class="st2" d="M202.6,221.9c0-4.3-3.4-7.7-7.6-7.7s-7.6,3.5-7.6,7.7,3.4,7.7,7.6,7.7,7.6-3.5,7.6-7.7Z"/>
    <path class="st2" d="M315.3,356.6h-60.8c-.6,0-1.1-.5-1.1-1.1s.5-1.1,1.1-1.1h60.8c.6,0,1.1.5,1.1,1.1s-.5,1.1-1.1,1.1Z"/>
    <g>
      <path class="st2" d="M1004.3,351.9c-.3,0-.6-.1-.8-.4l-19.8-23.3h-66.6c-.6,0-1.1-.5-1.1-1.1s.5-1.1,1.1-1.1h67.1c.3,0,.6.1.8.4l20.1,23.6c.4.5.3,1.1-.1,1.5-.2.2-.4.3-.7.3Z"/>
      <path class="st2" d="M1001.7,356.9c0-4.3,3.4-7.7,7.6-7.7s7.6,3.5,7.6,7.7-3.4,7.7-7.6,7.7-7.6-3.5-7.6-7.7Z"/>
      <path class="st2" d="M965.7,363.1c0-4.3,3.4-7.7,7.6-7.7s7.6,3.5,7.6,7.7-3.4,7.7-7.6,7.7-7.6-3.5-7.6-7.7Z"/>
      <path class="st2" d="M1030.9,254.1h-86.5c-.6,0-1.1-.5-1.1-1.1s.5-1.1,1.1-1.1h86l19.8-23.3c.4-.5,1.1-.5,1.5-.1s.5,1.1.1,1.5l-20.1,23.7c-.2.2-.5.4-.8.4Z"/>
      <path class="st2" d="M1048.4,223.3c0,4.3,3.4,7.7,7.6,7.7s7.6-3.5,7.6-7.7-3.4-7.7-7.6-7.7-7.6,3.5-7.6,7.7Z"/>
      <path class="st2" d="M982.9,201.6h-62.9c-.6,0-1.1-.5-1.1-1.1s.5-1.1,1.1-1.1h62.4l19.8-23.3c.4-.5,1.1-.5,1.5-.1.5.4.5,1.1.1,1.5l-20.1,23.7c-.2.2-.5.4-.8.4Z"/>
      <path class="st2" d="M1000.4,170.8c0,4.3,3.4,7.7,7.6,7.7s7.6-3.5,7.6-7.7-3.4-7.7-7.6-7.7-7.6,3.5-7.6,7.7Z"/>
      <path class="st2" d="M969.8,173.3c-.3,0-.6-.1-.8-.4l-19.8-23.3h-35.4l-10.8,13.5c-.2.3-.5.4-.8.4h-36.5c-.6,0-1.1-.5-1.1-1.1s.5-1.1,1.1-1.1h35.9l10.8-13.5c.2-.3.5-.4.8-.4h36.4c.3,0,.6.1.8.4l20.1,23.6c.4.5.3,1.1-.1,1.5-.2.2-.5.3-.7.3Z"/>
      <path class="st2" d="M967.2,178.3c0-4.3,3.4-7.7,7.6-7.7s7.6,3.5,7.6,7.7-3.4,7.7-7.6,7.7-7.6-3.5-7.6-7.7Z"/>
      <path class="st2" d="M988.9,455h-36.4c-.3,0-.6-.1-.8-.4l-10.8-13.4h-86.1c-.3,0-.6-.1-.8-.3l-13.5-13.9c-.4-.4-.4-1.1,0-1.5.4-.4,1.1-.4,1.5,0l13.2,13.5h86.1c.3,0,.6.1.8.4l10.8,13.4h35.4l19.8-23.3c.4-.5,1.1-.5,1.5-.1.5.4.5,1.1.1,1.5l-20.1,23.7c-.2.2-.5.4-.8.4Z"/>
      <path class="st2" d="M1006.4,424.2c0,4.3,3.4,7.7,7.6,7.7s7.6-3.5,7.6-7.7-3.4-7.7-7.6-7.7-7.6,3.5-7.6,7.7Z"/>
      <path class="st2" d="M980,148.6c-.3,0-.6-.1-.8-.4l-19.8-23.3h-40.9l-10.8,13.5c-.2.3-.5.4-.8.4h-36.8c-.6,0-1.1-.5-1.1-1.1s.5-1.1,1.1-1.1h36.3l10.8-13.5c.2-.3.5-.4.8-.4h41.9c.3,0,.6.1.8.4l20.1,23.6c.4.5.3,1.1-.1,1.5-.2.2-.4.3-.7.3Z"/>
      <path class="st2" d="M977.3,153.6c0-4.3,3.4-7.7,7.6-7.7s7.6,3.5,7.6,7.7-3.4,7.7-7.6,7.7-7.6-3.5-7.6-7.7Z"/>
      <path class="st2" d="M1058.3,315.5c-.3,0-.6-.1-.8-.4l-19.8-23.3h-113c-.6,0-1.1-.5-1.1-1.1s.5-1.1,1.1-1.1h113.5c.3,0,.6.1.8.4l20.1,23.7c.4.5.3,1.1-.1,1.5-.2.2-.5.3-.7.3Z"/>
      <path class="st2" d="M1055.7,320.5c0-4.3,3.4-7.7,7.6-7.7s7.6,3.5,7.6,7.7-3.4,7.7-7.6,7.7-7.6-3.5-7.6-7.7Z"/>
      <path class="st2" d="M967.7,425.3c-.3,0-.6-.1-.8-.4l-19.8-23.3h-74.5c-.6,0-1.1-.5-1.1-1.1s.5-1.1,1.1-1.1h75c.3,0,.6.1.8.4l20.1,23.6c.4.5.3,1.1-.1,1.5-.2.2-.5.3-.7.3Z"/>
      <path class="st2" d="M965.1,430.3c0-4.3,3.4-7.7,7.6-7.7s7.6,3.5,7.6,7.7-3.4,7.7-7.6,7.7-7.6-3.5-7.6-7.7Z"/>
      <path class="st2" d="M1039.5,351.9c-.3,0-.6-.1-.8-.4l-34.9-40.9h-80.3c-.6,0-1.1-.5-1.1-1.1s.5-1.1,1.1-1.1h80.8c.3,0,.6.1.8.4l35.2,41.3c.4.5.3,1.1-.1,1.5-.2.2-.5.3-.7.3Z"/>
      <path class="st2" d="M1036.9,356.9c0-4.3,3.4-7.7,7.6-7.7s7.6,3.5,7.6,7.7-3.4,7.7-7.6,7.7-7.6-3.5-7.6-7.7Z"/>
      <path class="st2" d="M1047.2,273.1h-109.8c-.6,0-1.1-.5-1.1-1.1s.5-1.1,1.1-1.1h109.8c.6,0,1.1.5,1.1,1.1s-.5,1.1-1.1,1.1Z"/>
      <path class="st2" d="M1047.2,272c0-4.3,3.4-7.7,7.6-7.7s7.6,3.5,7.6,7.7-3.4,7.7-7.6,7.7-7.6-3.5-7.6-7.7Z"/>
      <path class="st2" d="M1001.6,230.5h-60.6c-.6,0-1.1-.5-1.1-1.1s.5-1.1,1.1-1.1h60.6c.6,0,1.1.5,1.1,1.1s-.5,1.1-1.1,1.1Z"/>
      <path class="st2" d="M1001.6,229.4c0-4.3,3.4-7.7,7.6-7.7s7.6,3.5,7.6,7.7-3.4,7.7-7.6,7.7-7.6-3.5-7.6-7.7Z"/>
      <path class="st2" d="M965.7,364.2h-60.8c-.6,0-1.1-.5-1.1-1.1s.5-1.1,1.1-1.1h60.8c.6,0,1.1.5,1.1,1.1s-.5,1.1-1.1,1.1Z"/>
    </g>
  </g>
  <path class="st0" d="M692.6,376.7c-30.7,39.5-70.8,57.8-119.5,54-48.6-3.8-85.1-29-111.7-71.4-2.4,6.9-4.4,13-6.8,19-5.9,15.1-12.4,29.8-24.2,41.2-12.9,12.4-28.3,17.9-46,16.9-26.9-1.5-44.7-16.2-54.1-41.2-14.7-39.1-28.5-78.6-42.8-117.8-22.9-62.6-45.9-125.1-68.9-187.6-2.8-7.6-6.2-15-9-22.6-4.4-12,2.6-22.4,15-22.5,33.2-.2,59.5,13.7,79.8,40.5,12.3,16.2,19.1,35,26.2,53.7,18.9,50.1,37.8,100.2,56.7,150.3.3.8.7,1.5,1.6,3.3,2.6-7.1,5-13.5,7.3-19.8,19.1-52.7,38-105.4,57.2-158,9.6-26.3,25.9-47.1,50.4-60.5,15.3-8.4,31.6-13.1,49.2-12,9.8.6,16.7,9.6,13.8,19.2-3.6,11.8-8.4,23.2-12.5,34.8-4.8,13.4-9.6,26.8-14.3,40.2-.4,1.1-.5,2.2-.9,3.7,56.9-15.5,106.8-4.9,148,39.9,4.5-5.1,8.7-10.1,13.1-15,28.4-30.6,63.1-46.2,104.5-46.9,62.3-.9,115.3,35.6,138.2,93.7,22.9,58.1,16,113.8-22.6,163.6-22.5,28.9-52.1,46.9-87.7,53-49.3,8.5-92.4-5.1-128.5-40.8-3.6-3.5-7.1-7.1-11.1-11.1M883.2,271.6c1.5-35-22.3-70.1-52.3-80.5-20.4-7-40.7-6.6-59.5,4.3-32.6,19-47.3,54.5-42.1,92.6,3.1,22.3,13.6,40.4,29.9,55.3,22.8,20.9,59.5,24.2,84.8,6.4,26-18.2,39.5-43.6,39.1-78.1M624.7,213c-1.8-1.5-2.9-2.5-4-3.3-22.7-16.7-56.7-15.6-79.9,2.5-35.2,27.5-38.1,75.7-23.7,107,8.6,18.7,21.7,33.5,41.2,40.2,29.4,10.1,55.5,4,77.4-19,8-8.4,15.9-17,23.7-25.7,1-1.2,1.2-3.7,1-5.5-.9-7.4-2.3-14.6-3-22-.7-6.9-.7-13.8-1-21.1-1.1.5-1.9.8-2.6,1.2-23.2,13.1-46.3,26.2-69.4,39.4-14.8,8.4-29.5,16.9-44.4,25.3-7.6,4.3-14.4,1-16-7.7-.7-3.7-1-7.5-1-11.3.4-25.1,11.3-44.7,31.3-58.4,15.3-10.5,31.8-19.2,47.8-28.6,7.2-4.3,14.6-8.4,22.7-13h0Z"/>
</svg>