<?xml version="1.0" encoding="UTF-8"?>
<svg id="Layer_2" data-name="Layer 2" xmlns="http://www.w3.org/2000/svg" viewBox="0 0 64.57 40">
  <defs>
    <style>
      .cls-1 {
        fill: #3a913f;
      }
    </style>
  </defs>
  <g id="Layer_1-2" data-name="Layer 1">
    <g>
      <g>
        <path class="cls-1" d="M0,32.88l2.32-5.84h1.69l2.32,5.84h-1.6l-.34-.92H1.93l-.34.92H0ZM2.4,30.71h1.52l-.61-1.69c-.05-.14-.1-.28-.15-.59-.05.31-.1.45-.15.59l-.61,1.69h0Z"/>
        <path class="cls-1" d="M8.45,27.04v5.84h-1.56v-5.84h1.56Z"/>
        <path d="M16.62,27.04v5.84h-1.56v-2.23h-2.19v2.23h-1.56v-5.84h1.56v2.24h2.19v-2.24h1.56Z"/>
        <path d="M17.18,32.88l2.32-5.84h1.69l2.32,5.84h-1.6l-.34-.92h-2.45l-.34.92h-1.6,0ZM19.59,30.71h1.52l-.61-1.69c-.05-.14-.1-.28-.15-.59-.05.31-.1.45-.15.59l-.61,1.69h0Z"/>
        <path d="M26.7,26.91c.6,0,1.2.12,1.71.37v1.46c-.36-.3-.9-.47-1.44-.47-.93,0-1.86.51-1.86,1.78s.93,1.6,1.84,1.6,1.16-.18,1.5-.51v1.5c-.51.24-1.1.37-1.72.37-1.62,0-3.23-.87-3.23-2.96s1.6-3.13,3.19-3.13h0Z"/>
        <path d="M29.31,32.88v-5.84h1.56v2.21h.74l1.34-2.21h1.73l-1.86,2.84,1.94,2.99h-1.73l-1.43-2.25h-.73v2.25h-1.56Z"/>
        <path d="M34.71,32.88l2.32-5.84h1.69l2.32,5.84h-1.6l-.34-.92h-2.45l-.34.92h-1.6,0ZM37.11,30.71h1.52l-.61-1.69c-.05-.14-.1-.28-.15-.59-.05.31-.1.45-.15.59l-.61,1.69h0Z"/>
        <path d="M45.33,27.04v1.37h-1.66v4.46h-1.56v-4.46h-1.67v-1.37h4.89Z"/>
        <path d="M51.31,27.04v5.84h-1.56v-2.23h-2.19v2.23h-1.56v-5.84h1.56v2.24h2.19v-2.24h1.56Z"/>
        <path d="M55.29,26.91c2.11,0,3.16,1.42,3.16,3.04s-1.05,3.04-3.16,3.04-3.16-1.42-3.16-3.04,1.05-3.04,3.16-3.04h0ZM55.29,28.33c-1.02,0-1.56.69-1.56,1.63s.54,1.63,1.56,1.63,1.56-.69,1.56-1.63-.54-1.63-1.56-1.63Z"/>
        <path d="M59.26,32.88v-5.84h1.47l2.31,3.35c-.02-.28-.03-.64-.03-.97v-2.39h1.56v5.84h-1.47l-2.31-3.35c.02.28.03.64.03.96v2.39h-1.56Z"/>
      </g>
      <g>
        <path d="M19.79,35.33c1.03,0,1.94.32,1.94,1.42s-.91,1.42-1.94,1.42h-1.27v1.75h-.17v-4.6h1.44ZM19.8,35.49h-1.28v2.53h1.28c.95,0,1.77-.27,1.77-1.27s-.81-1.27-1.77-1.27h0Z"/>
        <path d="M22.67,39.93v-4.6h1.74c.76,0,1.63.35,1.63,1.34s-.76,1.29-1.48,1.32l1.78,1.94h-.21l-1.77-1.93h-1.53v1.93h-.17,0ZM22.84,37.83h1.59c.68,0,1.46-.29,1.46-1.17s-.78-1.17-1.46-1.17h-1.59v2.35h0Z"/>
        <path d="M29.24,35.26c1.6,0,2.4,1.23,2.4,2.37s-.79,2.37-2.4,2.37-2.4-1.23-2.4-2.37.79-2.37,2.4-2.37ZM29.24,35.42c-1.49,0-2.23,1.14-2.23,2.2s.74,2.2,2.23,2.2,2.23-1.14,2.23-2.2-.74-2.2-2.23-2.2Z"/>
        <path d="M34.53,35.33v3.39c0,.87-.6,1.27-1.41,1.27s-.89-.09-1.19-.28v-.17c.3.19.73.29,1.17.29.74,0,1.27-.35,1.27-1.12v-3.23h-1.53v-.16h1.7,0Z"/>
        <path d="M38.89,35.33v.16h-2.85v2.05h2.65v.16h-2.65v2.08h2.91v.16h-3.08v-4.6h3.02,0Z"/>
        <path d="M42,35.26c.47,0,.93.11,1.3.32v.17c-.35-.21-.82-.32-1.28-.32-1.09,0-2.24.75-2.24,2.27s1.15,2.15,2.25,2.15.96-.11,1.33-.33v.17c-.37.21-.83.32-1.36.32-1.15,0-2.39-.73-2.39-2.3s1.23-2.42,2.38-2.42h0Z"/>
        <path d="M47.47,35.33v.16h-1.78v4.44h-.17v-4.44h-1.78v-.16h3.73Z"/>
      </g>
      <g>
        <g>
          <path class="cls-1" d="M11.89,16.82s-.03,0-.04-.02c-.03-.02-.03-.06,0-.08l1.13-1.32s.03-.02.05-.02h4.34s.06.03.06.06-.03.06-.06.06h-4.31l-1.11,1.3s-.03.02-.05.02h0Z"/>
          <path class="cls-1" d="M12.03,17.1c0-.24-.19-.43-.43-.43s-.43.19-.43.43.19.43.43.43.43-.19.43-.43Z"/>
          <path class="cls-1" d="M14.31,17.45c0-.24-.19-.43-.43-.43s-.43.19-.43.43.19.43.43.43.43-.19.43-.43Z"/>
          <path class="cls-1" d="M15.76,11.39h-5.43s-.03,0-.05-.02l-1.13-1.31s-.02-.06,0-.08c.03-.02.06-.02.08,0l1.11,1.3h5.4s.06.03.06.06-.03.06-.06.06h0Z"/>
          <path class="cls-1" d="M9.34,9.67c0,.24-.19.43-.43.43s-.43-.19-.43-.43.19-.43.43-.43.43.19.43.43Z"/>
          <path class="cls-1" d="M14.65,8.46h-4.1s-.03,0-.05-.02l-1.13-1.31s-.02-.06,0-.08c.03-.02.06-.02.08,0l1.11,1.3h4.07s.06.03.06.06-.03.06-.06.06h0Z"/>
          <path class="cls-1" d="M9.56,6.75c0,.24-.19.43-.43.43s-.43-.19-.43-.43.19-.43.43-.43.43.19.43.43Z"/>
          <path class="cls-1" d="M7.37,5.67s-.03,0-.04-.02c-.03-.02-.03-.06,0-.08l1.13-1.32s.03-.02.05-.02h2.05s.03,0,.05.02l.61.75h2.02s.06.03.06.06-.03.06-.06.06h-2.05s-.03,0-.05-.02l-.61-.75h-1.99l-1.11,1.3s-.03.02-.05.02h0Z"/>
          <path class="cls-1" d="M7.53,5.95c0-.24-.19-.43-.43-.43s-.43.19-.43.43.19.43.43.43.43-.19.43-.43Z"/>
          <path class="cls-1" d="M13.63,22.56h-2.05s-.03,0-.05-.02l-1.13-1.32s-.02-.06,0-.08c.03-.02.06-.02.08,0l1.11,1.3h1.99l.61-.75s.03-.02.05-.02h4.84l.74-.75s.06-.02.08,0,.02.06,0,.08l-.76.77s-.03.02-.04.02h-4.84l-.61.75s-.03.02-.05.02h.02Z"/>
          <path class="cls-1" d="M10.6,20.85c0,.24-.19.43-.43.43s-.43-.19-.43-.43.19-.43.43-.43.43.19.43.43Z"/>
          <path class="cls-1" d="M7.37,4.31s-.03,0-.04-.02c-.03-.02-.03-.06,0-.08l1.13-1.31s.03-.02.05-.02h2.36s.03,0,.05.02l.61.75h2.04s.06.03.06.06-.03.06-.06.06h-2.07s-.03,0-.05-.02l-.61-.75h-2.3l-1.11,1.3s-.03.02-.05.02h0Z"/>
          <path class="cls-1" d="M7.53,4.58c0-.24-.19-.43-.43-.43s-.43.19-.43.43.19.43.43.43.43-.19.43-.43Z"/>
          <path class="cls-1" d="M5.94,2.79s-.03,0-.04-.02c-.03-.02-.03-.06,0-.08l1.13-1.32s.03-.02.05-.02h6.38s.06.03.06.06-.03.06-.06.06h-6.36l-1.11,1.3s-.03.02-.05.02Z"/>
          <path class="cls-1" d="M6.09,3.07c0-.24-.19-.43-.43-.43s-.43.19-.43.43.19.43.43.43.43-.19.43-.43Z"/>
          <path class="cls-1" d="M12.77,20.91s-.03,0-.04-.02c-.03-.02-.03-.06,0-.08l1.13-1.31s.03-.02.05-.02h4.84s.06.03.06.06-.03.06-.06.06h-4.81l-1.11,1.3s-.03.02-.05.02h0Z"/>
          <path class="cls-1" d="M12.92,21.19c0-.24-.19-.43-.43-.43s-.43.19-.43.43.19.43.43.43.43-.19.43-.43Z"/>
          <path class="cls-1" d="M9.91,16.82s-.03,0-.04-.02c-.03-.02-.03-.06,0-.08l1.98-2.3s.03-.02.05-.02h5.1s.06.03.06.06-.03.06-.06.06h-5.07l-1.96,2.28s-.03.02-.05.02h0Z"/>
          <path class="cls-1" d="M10.05,17.1c0-.24-.19-.43-.43-.43s-.43.19-.43.43.19.43.43.43.43-.19.43-.43Z"/>
          <path class="cls-1" d="M16.15,12.44h-6.74s-.06-.03-.06-.06.03-.06.06-.06h6.74s.06.03.06.06-.03.06-.06.06Z"/>
          <path class="cls-1" d="M9.41,12.38c0-.24-.19-.43-.43-.43s-.43.19-.43.43.19.43.43.43.43-.19.43-.43Z"/>
          <path class="cls-1" d="M15.37,10.07h-3.97s-.06-.03-.06-.06.03-.06.06-.06h3.97s.06.03.06.06-.03.06-.06.06Z"/>
          <path class="cls-1" d="M11.4,10.01c0-.24-.19-.43-.43-.43s-.43.19-.43.43.19.43.43.43.43-.19.43-.43Z"/>
          <path class="cls-1" d="M17.74,17.51h-3.42s-.06-.03-.06-.06.03-.06.06-.06h3.42s.06.03.06.06-.03.06-.06.06Z"/>
          <g>
            <path class="cls-1" d="M56.49,17.25s-.03,0-.04-.02l-1.11-1.3h-3.75s-.06-.03-.06-.06.03-.06.06-.06h3.77s.03,0,.04.02l1.13,1.31s.02.06,0,.08c-.01.01-.02.02-.04.02h0Z"/>
            <path class="cls-1" d="M56.35,17.52c0-.24.19-.43.43-.43s.43.19.43.43-.19.43-.43.43-.43-.19-.43-.43Z"/>
            <path class="cls-1" d="M54.32,17.87c0-.24.19-.43.43-.43s.43.19.43.43-.19.43-.43.43-.43-.19-.43-.43Z"/>
            <path class="cls-1" d="M57.99,11.8h-4.87s-.06-.03-.06-.06.03-.06.06-.06h4.84l1.11-1.3s.06-.03.08,0,.03.06,0,.08l-1.13,1.32s-.03.02-.05.02h0Z"/>
            <path class="cls-1" d="M58.97,10.09c0,.24.19.43.43.43s.43-.19.43-.43-.19-.43-.43-.43-.43.19-.43.43Z"/>
            <path class="cls-1" d="M55.29,8.88h-3.54s-.06-.03-.06-.06.03-.06.06-.06h3.51l1.11-1.3s.06-.03.08,0c.03.02.03.06,0,.08l-1.13,1.32s-.03.02-.04.02h0Z"/>
            <path class="cls-1" d="M56.27,7.17c0,.24.19.43.43.43s.43-.19.43-.43-.19-.43-.43-.43-.43.19-.43.43Z"/>
            <path class="cls-1" d="M54.55,7.31s-.03,0-.04-.02l-1.11-1.3h-1.99l-.61.75s-.03.02-.04.02h-2.05s-.06-.03-.06-.06.03-.06.06-.06h2.02l.61-.75s.03-.02.04-.02h2.05s.03,0,.04.02l1.13,1.31s.02.06,0,.08c-.01.01-.03.02-.04.02h0Z"/>
            <path class="cls-1" d="M54.4,7.58c0-.24.19-.43.43-.43s.43.19.43.43-.19.43-.43.43-.43-.19-.43-.43Z"/>
            <path class="cls-1" d="M55.63,22.98h-2.05s-.03,0-.04-.02l-.61-.75h-4.84s-.03,0-.04-.02l-.76-.77s-.02-.06,0-.08.06-.02.08,0l.74.75h4.84s.03,0,.04.02l.61.75h1.99l1.11-1.3s.06-.03.08,0c.03.02.03.06,0,.08l-1.13,1.32s-.03.02-.04.02h0Z"/>
            <path class="cls-1" d="M56.61,21.27c0,.24.19.43.43.43s.43-.19.43-.43-.19-.43-.43-.43-.43.19-.43.43Z"/>
            <path class="cls-1" d="M55.12,5.93s-.03,0-.04-.02l-1.11-1.3h-2.3l-.61.75s-.03.02-.04.02h-2.07s-.06-.03-.06-.06.03-.06.06-.06h2.04l.61-.75s.03-.02.04-.02h2.36s.03,0,.04.02l1.13,1.31s.02.06,0,.08c-.01.01-.02.02-.04.02h0Z"/>
            <path class="cls-1" d="M54.97,6.21c0-.24.19-.43.43-.43s.43.19.43.43-.19.43-.43.43-.43-.19-.43-.43Z"/>
            <path class="cls-1" d="M59.53,15.22s-.03,0-.05-.02l-1.11-1.3h-6.36s-.06-.03-.06-.06.03-.06.06-.06h6.38s.03,0,.05.02l1.13,1.32s.02.06,0,.08c-.01.01-.03.02-.04.02Z"/>
            <path class="cls-1" d="M59.38,15.5c0-.24.19-.43.43-.43s.43.19.43.43-.19.43-.43.43-.43-.19-.43-.43Z"/>
            <path class="cls-1" d="M54.43,21.33s-.03,0-.04-.02l-1.11-1.3h-4.19s-.06-.03-.06-.06.03-.06.06-.06h4.22s.03,0,.04.02l1.13,1.31s.02.06,0,.08c-.01.01-.03.02-.04.02h0Z"/>
            <path class="cls-1" d="M54.29,21.61c0-.24.19-.43.43-.43s.43.19.43.43-.19.43-.43.43-.43-.19-.43-.43Z"/>
            <path class="cls-1" d="M58.47,17.25s-.03,0-.05-.02l-1.96-2.28h-4.52s-.06-.03-.06-.06.03-.06.06-.06h4.54s.03,0,.04.02l1.98,2.3s.02.06,0,.08c-.01.01-.03.02-.04.02h0Z"/>
            <path class="cls-1" d="M58.33,17.52c0-.24.19-.43.43-.43s.43.19.43.43-.19.43-.43.43-.43-.19-.43-.43Z"/>
            <path class="cls-1" d="M58.9,12.86h-6.18s-.06-.03-.06-.06.03-.06.06-.06h6.18s.06.03.06.06-.03.06-.06.06Z"/>
            <path class="cls-1" d="M58.9,12.8c0-.24.19-.43.43-.43s.43.19.43.43-.19.43-.43.43-.43-.19-.43-.43Z"/>
            <path class="cls-1" d="M56.34,10.49h-3.41s-.06-.03-.06-.06.03-.06.06-.06h3.41s.06.03.06.06-.03.06-.06.06Z"/>
            <path class="cls-1" d="M56.34,10.43c0-.24.19-.43.43-.43s.43.19.43.43-.19.43-.43.43-.43-.19-.43-.43Z"/>
            <path class="cls-1" d="M54.32,17.93h-3.42s-.06-.03-.06-.06.03-.06.06-.06h3.42s.06.03.06.06-.03.06-.06.06Z"/>
          </g>
        </g>
        <path class="cls-1" d="M38.96,18.63c-1.73,2.2-3.98,3.22-6.72,3.01-2.73-.21-4.79-1.61-6.28-3.97-.13.38-.25.72-.38,1.06-.33.84-.7,1.66-1.36,2.29-.73.69-1.59,1-2.59.94-1.51-.08-2.51-.9-3.04-2.29-.83-2.18-1.6-4.37-2.41-6.56-1.29-3.48-2.58-6.96-3.88-10.44-.16-.42-.35-.83-.51-1.26-.25-.67.15-1.25.84-1.25,1.87-.01,3.35.76,4.49,2.25.69.9,1.07,1.95,1.47,2.99,1.06,2.79,2.13,5.58,3.19,8.37.02.04.04.08.09.18.15-.4.28-.75.41-1.1,1.07-2.93,2.14-5.87,3.22-8.79.54-1.46,1.46-2.62,2.83-3.37.86-.47,1.78-.73,2.77-.67.55.03.94.53.78,1.07-.2.66-.47,1.29-.7,1.94-.27.75-.54,1.49-.8,2.24-.02.06-.03.12-.05.21,3.2-.86,6.01-.27,8.32,2.22.25-.28.49-.56.74-.83,1.6-1.7,3.55-2.57,5.88-2.61,3.5-.05,6.49,1.98,7.77,5.22,1.29,3.23.9,6.33-1.27,9.11-1.27,1.61-2.93,2.61-4.93,2.95-2.77.47-5.2-.28-7.23-2.27-.2-.19-.4-.4-.62-.62M49.68,12.78c.08-1.95-1.25-3.9-2.94-4.48-1.15-.39-2.29-.37-3.35.24-1.83,1.06-2.66,3.03-2.37,5.15.17,1.24.76,2.25,1.68,3.08,1.28,1.16,3.35,1.35,4.77.36,1.46-1.01,2.22-2.43,2.2-4.35M35.14,9.52c-.1-.08-.16-.14-.22-.18-1.28-.93-3.19-.87-4.49.14-1.98,1.53-2.14,4.21-1.33,5.96.48,1.04,1.22,1.86,2.32,2.24,1.65.56,3.12.22,4.35-1.06.45-.47.89-.95,1.33-1.43.06-.07.07-.21.06-.31-.05-.41-.13-.81-.17-1.22-.04-.38-.04-.77-.06-1.17-.06.03-.11.04-.15.07-1.3.73-2.6,1.46-3.9,2.19-.83.47-1.66.94-2.5,1.41-.43.24-.81.06-.9-.43-.04-.21-.06-.42-.06-.63.02-1.4.64-2.49,1.76-3.25.86-.58,1.79-1.07,2.69-1.59.4-.24.82-.47,1.28-.72h0Z"/>
      </g>
    </g>
  </g>
</svg>