<svg width="80" height="43" viewBox="0 0 80 43" fill="none" xmlns="http://www.w3.org/2000/svg">
<path d="M51.8417 35.7152C48.5505 39.9241 44.2577 41.8849 39.0481 41.4833C33.8481 41.0816 29.9345 38.3862 27.0945 33.8606C26.8337 34.5952 26.6225 35.2499 26.3713 35.8899C25.7425 37.498 25.0449 39.0686 23.7777 40.2849C22.3953 41.6122 20.7473 42.1967 18.8561 42.0922C15.9745 41.9322 14.0737 40.3682 13.0673 37.6988C11.4929 33.5242 10.0209 29.3104 8.48494 25.1211C6.03694 18.447 3.57454 11.7761 1.10894 5.10686C0.808142 4.29382 0.446542 3.50526 0.142542 2.69385C-0.332658 1.41714 0.420942 0.302063 1.75214 0.2939C5.30574 0.274308 8.12014 1.75509 10.2929 4.61055C11.6065 6.33786 12.3361 8.34271 13.0929 10.3427C15.1153 15.6895 17.1377 21.0363 19.1601 26.3832C19.1921 26.4681 19.2385 26.5464 19.3281 26.7309C19.6097 25.9685 19.8609 25.2958 20.1073 24.6199C22.1489 18.9988 24.1777 13.3712 26.2353 7.7566C27.2641 4.95013 29.0065 2.72814 31.6241 1.29959C33.2609 0.403285 35.0065 -0.0995616 36.8865 0.0163543C37.9377 0.0816591 38.6785 1.0449 38.3601 2.06856C37.9697 3.32567 37.4657 4.54361 37.0177 5.78277C36.5009 7.21131 35.9921 8.64312 35.4833 10.0733C35.4433 10.1859 35.4241 10.3068 35.3825 10.4717C41.4721 8.81944 46.8097 9.95248 51.2241 14.7344C51.6993 14.1908 52.1505 13.6504 52.6289 13.1361C55.6673 9.87085 59.3841 8.20068 63.8081 8.13537C70.4753 8.03741 76.1489 11.9377 78.5969 18.1384C81.0434 24.3342 80.3153 30.2819 76.1729 35.5977C73.7681 38.6849 70.5938 40.6 66.7825 41.2531C61.5089 42.1559 56.8961 40.711 53.0289 36.9005C52.6465 36.5234 52.2689 36.143 51.8385 35.7152H51.8417ZM72.2449 24.4926C72.4065 20.7572 69.8625 17.0054 66.6465 15.8968C64.4657 15.1442 62.2913 15.1899 60.2833 16.3572C56.7889 18.3866 55.2161 22.1743 55.7745 26.2395C56.1009 28.6247 57.2337 30.5463 58.9777 32.1398C61.4209 34.3699 65.3505 34.7209 68.0577 32.8238C70.8337 30.8778 72.2865 28.1725 72.2449 24.4926ZM44.5809 18.2446C44.3825 18.0797 44.2721 17.9768 44.1505 17.8886C41.7185 16.1058 38.0817 16.2201 35.6033 18.1531C31.8353 21.0902 31.5249 26.233 33.0641 29.5766C33.9825 31.57 35.3889 33.1471 37.4785 33.8638C40.6209 34.9397 43.4225 34.2932 45.7617 31.8361C46.6193 30.9349 47.4673 30.0255 48.2961 29.0966C48.4081 28.9709 48.4225 28.7031 48.4001 28.5121C48.3089 27.7268 48.1569 26.9497 48.0801 26.1644C48.0081 25.4313 48.0049 24.6918 47.9697 23.913C47.8481 23.9685 47.7649 23.9995 47.6897 24.0436C45.2129 25.4444 42.7361 26.8452 40.2609 28.2476C38.6769 29.1456 37.0993 30.0533 35.5105 30.9431C34.6993 31.3986 33.9713 31.0525 33.7937 30.1219C33.7185 29.7284 33.6849 29.3202 33.6897 28.9202C33.7281 26.246 34.8993 24.1497 37.0369 22.6918C38.6785 21.5735 40.4433 20.6412 42.1569 19.6339C42.9329 19.1784 43.7185 18.7392 44.5809 18.2462V18.2446Z" fill="#3A913F"/>
</svg>
